<svg width="9" height="17" viewBox="0 0 9 17" fill="none" xmlns="http://www.w3.org/2000/svg">
<path d="M8.32031 14.9844C8.44531 15.1094 8.50781 15.2578 8.50781 15.4297C8.50781 15.5859 8.44531 15.7266 8.32031 15.8516C8.19531 15.9609 8.04688 16.0156 7.875 16.0156C7.71875 16 7.58594 15.9375 7.47656 15.8281L0.375 8.70312C0.171875 8.51562 0.0703125 8.28125 0.0703125 8C0.0703125 7.71875 0.171875 7.48438 0.375 7.29688L7.5 0.171875C7.60938 0.0625 7.74219 0.0078125 7.89844 0.0078125C8.07031 0.0078125 8.21094 0.0625 8.32031 0.171875C8.44531 0.296875 8.50781 0.445312 8.50781 0.617188C8.50781 0.773437 8.44531 0.90625 8.32031 1.01562L1.33594 8L8.32031 14.9844Z" fill="#89837F"/>
</svg>
