<svg width="9" height="16" viewBox="0 0 9 16" fill="none" xmlns="http://www.w3.org/2000/svg">
<path d="M7.66406 8L0.679688 1.01562C0.554688 0.90625 0.492188 0.773437 0.492188 0.617188C0.492188 0.445312 0.554688 0.296875 0.679688 0.171875C0.789062 0.0625 0.921875 0.0078125 1.07812 0.0078125C1.25 0.0078125 1.39062 0.0625 1.5 0.171875L8.625 7.29688C8.82812 7.48438 8.92969 7.71875 8.92969 8C8.92969 8.28125 8.82812 8.51562 8.625 8.70312L1.52344 15.8047C1.41406 15.9297 1.27344 15.9922 1.10156 15.9922C0.945312 15.9922 0.804688 15.9453 0.679688 15.8516C0.554688 15.7266 0.492188 15.5859 0.492188 15.4297C0.492188 15.2578 0.554688 15.1094 0.679688 14.9844L7.66406 8Z" fill="#56504C"/>
</svg>
